<svg width="112" height="20" viewBox="0 0 112 20" fill="none" xmlns="http://www.w3.org/2000/svg">
<path d="M6.656 14.288C7.30667 14.288 7.86667 14.1813 8.336 13.968C8.80533 13.744 9.296 13.392 9.808 12.912L11.024 14.16C9.84 15.472 8.4 16.128 6.704 16.128C5.01867 16.128 3.616 15.584 2.496 14.496C1.38667 13.408 0.832 12.032 0.832 10.368C0.832 8.704 1.39733 7.31733 2.528 6.208C3.66933 5.09867 5.104 4.544 6.832 4.544C8.57067 4.544 10.0213 5.184 11.184 6.464L9.984 7.776C9.45067 7.264 8.944 6.90667 8.464 6.704C7.99467 6.50133 7.44 6.4 6.8 6.4C5.66933 6.4 4.72 6.768 3.952 7.504C3.184 8.22933 2.8 9.16267 2.8 10.304C2.8 11.4347 3.17867 12.384 3.936 13.152C4.704 13.9093 5.61067 14.288 6.656 14.288ZM14.8269 13.76C15.3389 14.272 15.9842 14.528 16.7629 14.528C17.5415 14.528 18.1815 14.272 18.6829 13.76C19.1949 13.2373 19.4509 12.5653 19.4509 11.744C19.4509 10.9227 19.1949 10.256 18.6829 9.744C18.1815 9.22133 17.5415 8.96 16.7629 8.96C15.9842 8.96 15.3389 9.22133 14.8269 9.744C14.3255 10.256 14.0749 10.9227 14.0749 11.744C14.0749 12.5653 14.3255 13.2373 14.8269 13.76ZM19.9629 14.864C19.1095 15.7067 18.0429 16.128 16.7629 16.128C15.4829 16.128 14.4162 15.7067 13.5629 14.864C12.7095 14.0107 12.2829 12.9707 12.2829 11.744C12.2829 10.5173 12.7095 9.48267 13.5629 8.64C14.4162 7.78667 15.4829 7.36 16.7629 7.36C18.0429 7.36 19.1095 7.78667 19.9629 8.64C20.8162 9.48267 21.2429 10.5173 21.2429 11.744C21.2429 12.9707 20.8162 14.0107 19.9629 14.864ZM25.0724 11.392V16H23.2804V7.488H25.0724V9.04C25.3284 8.51733 25.7124 8.10667 26.2244 7.808C26.747 7.50933 27.307 7.36 27.9044 7.36C29.2484 7.36 30.1604 7.91467 30.6404 9.024C31.483 7.91467 32.5337 7.36 33.7924 7.36C34.7524 7.36 35.5257 7.65333 36.1124 8.24C36.7097 8.82667 37.0084 9.67467 37.0084 10.784V16H35.2164V11.328C35.2164 9.76 34.5657 8.976 33.2644 8.976C32.6564 8.976 32.123 9.17333 31.6644 9.568C31.2164 9.952 30.9817 10.5173 30.9604 11.264V16H29.1684V11.328C29.1684 10.5173 29.0244 9.92533 28.7364 9.552C28.4484 9.168 27.995 8.976 27.3764 8.976C26.7577 8.976 26.219 9.184 25.7604 9.6C25.3017 10.0053 25.0724 10.6027 25.0724 11.392ZM44.0591 7.36C45.2005 7.36 46.1765 7.75467 46.9871 8.544C47.7978 9.33333 48.2031 10.384 48.2031 11.696C48.2031 13.008 47.7978 14.0747 46.9871 14.896C46.1871 15.7173 45.2485 16.128 44.1711 16.128C43.1045 16.128 42.1445 15.6587 41.2911 14.72V19.104H39.4991V7.488H41.2911V8.976C41.9951 7.89867 42.9178 7.36 44.0591 7.36ZM41.2591 11.76C41.2591 12.5707 41.5045 13.2373 41.9951 13.76C42.4858 14.272 43.0831 14.528 43.7871 14.528C44.4911 14.528 45.1045 14.272 45.6271 13.76C46.1498 13.248 46.4111 12.5867 46.4111 11.776C46.4111 10.9547 46.1551 10.2773 45.6431 9.744C45.1311 9.2 44.5178 8.928 43.8031 8.928C43.0885 8.928 42.4858 9.2 41.9951 9.744C41.5045 10.2773 41.2591 10.9493 41.2591 11.76ZM54.7131 9.168C53.8278 9.168 53.1611 9.456 52.7131 10.032C52.2651 10.608 52.0411 11.3813 52.0411 12.352V16H50.2491V7.488H52.0411V9.2C52.3291 8.66667 52.7185 8.22933 53.2091 7.888C53.7105 7.54667 54.2385 7.37067 54.7931 7.36L54.8091 9.168C54.7771 9.168 54.7451 9.168 54.7131 9.168ZM63.4264 16H61.7944V14.864C61.0904 15.7067 60.1464 16.128 58.9624 16.128C58.077 16.128 57.341 15.8773 56.7544 15.376C56.1784 14.8747 55.8904 14.208 55.8904 13.376C55.8904 12.5333 56.1997 11.904 56.8184 11.488C57.437 11.072 58.2744 10.864 59.3304 10.864H61.6504V10.544C61.6504 9.41333 61.021 8.848 59.7624 8.848C58.973 8.848 58.1517 9.136 57.2984 9.712L56.4984 8.592C57.533 7.77067 58.7064 7.36 60.0184 7.36C61.021 7.36 61.837 7.616 62.4664 8.128C63.1064 8.62933 63.4264 9.424 63.4264 10.512V16ZM61.6344 12.832V12.112H59.6184C58.3277 12.112 57.6824 12.5173 57.6824 13.328C57.6824 13.744 57.8424 14.064 58.1624 14.288C58.4824 14.5013 58.925 14.608 59.4904 14.608C60.0664 14.608 60.5677 14.448 60.9944 14.128C61.421 13.808 61.6344 13.376 61.6344 12.832ZM70.385 9.168C69.4997 9.168 68.833 9.456 68.385 10.032C67.937 10.608 67.713 11.3813 67.713 12.352V16H65.921V7.488H67.713V9.2C68.001 8.66667 68.3903 8.22933 68.881 7.888C69.3823 7.54667 69.9103 7.37067 70.465 7.36L70.481 9.168C70.449 9.168 70.417 9.168 70.385 9.168Z" fill="#FFCB47"/>
<path d="M97 10H111" stroke="#FFCB47" stroke-width="2" stroke-linecap="round" stroke-linejoin="round"/>
<path d="M104 3L111 10L104 17" stroke="#FFCB47" stroke-width="2" stroke-linecap="round" stroke-linejoin="round"/>
</svg>
